<?xml version="1.0"?>
<svg xmlns="http://www.w3.org/2000/svg" width="512" height="512" viewBox="0 0 128 128"><g><path d="M103.431,50.313h-2.388V35.485a21.335,21.335,0,0,0-42.67,0V50.313H55.985a8.056,8.056,0,0,0-8.046,8.046v1.558H26.373a1.75,1.75,0,0,0,0,3.5H47.939v4.666H33.981a1.75,1.75,0,1,0,0,3.5H47.939V76.25H26.373a1.75,1.75,0,0,0,0,3.5H47.939v4.667H33.981a1.75,1.75,0,1,0,0,3.5H47.939v4.666H26.373a1.75,1.75,0,0,0,0,3.5H47.939v4.667H33.981a1.75,1.75,0,1,0,0,3.5H47.939V105.8a8.056,8.056,0,0,0,8.046,8.046h47.446a8.056,8.056,0,0,0,8.046-8.046V58.359A8.056,8.056,0,0,0,103.431,50.313ZM61.873,35.485a17.835,17.835,0,0,1,35.67,0V50.313H93.657V35.482a13.949,13.949,0,0,0-27.9,0V50.313H61.873Zm7.386,14.828V35.482a10.449,10.449,0,0,1,20.9,0V50.313ZM107.977,105.8a4.551,4.551,0,0,1-4.546,4.546H55.985a4.551,4.551,0,0,1-4.546-4.546V96.083h8.684a1.75,1.75,0,0,0,0-3.5H51.439V79.75h8.684a1.75,1.75,0,0,0,0-3.5H51.439V63.417h8.684a1.75,1.75,0,0,0,0-3.5H51.439V58.359a4.552,4.552,0,0,1,4.546-4.546h47.446a4.552,4.552,0,0,1,4.546,4.546Z"/><path d="M85.5,68.662A9.114,9.114,0,0,0,73.85,82.679v8.214a5.858,5.858,0,0,0,11.716,0V82.68A9.116,9.116,0,0,0,85.5,68.662Zm-2.664,11.7a1.749,1.749,0,0,0-.773,1.452v9.082a2.358,2.358,0,0,1-4.716,0V81.81a1.751,1.751,0,0,0-.773-1.452,5.616,5.616,0,0,1,1.987-10.163,6.079,6.079,0,0,1,1.154-.112,5.535,5.535,0,0,1,3.558,1.28,5.615,5.615,0,0,1-.437,9Z"/><path d="M18.273,71.583h8.1a1.75,1.75,0,1,0,0-3.5h-8.1a1.75,1.75,0,1,0,0,3.5Z"/><path d="M18.273,87.917h8.1a1.75,1.75,0,1,0,0-3.5h-8.1a1.75,1.75,0,1,0,0,3.5Z"/><path d="M26.373,100.75h-8.1a1.75,1.75,0,1,0,0,3.5h8.1a1.75,1.75,0,0,0,0-3.5Z"/></g></svg>
